<svg xmlns="http://www.w3.org/2000/svg" id="Layer_1" enable-background="new 0 0 16 16" viewBox="0 0 16 16"><path id="path7" fill="#fff" d="M 4.2519531 1 C 3.4249531 1 3 2.0597187 3 2.8867188 L 3 13.886719 C 3 14.347719 3.0626719 14.703328 3.3886719 14.861328 C 3.5026719 14.918328 3.5019062 14.945312 3.6289062 14.945312 C 3.8649063 14.945312 4.1204687 14.850969 4.3554688 14.667969 L 7.2851562 12.396484 C 7.5371563 12.199484 8.011625 12.199484 8.265625 12.396484 L 11.216797 14.667969 C 11.580797 14.949969 12.037281 15.022328 12.363281 14.861328 C 12.690281 14.702328 13 14.347719 13 13.886719 L 13 2.8867188 C 13 2.0597188 12.078953 1 11.251953 1 L 4.2519531 1 z "/></svg>